<svg version="1.1" xmlns="http://www.w3.org/2000/svg" xmlns:xlink="http://www.w3.org/1999/xlink" x="0px" y="0px"
	 width="195.008px" height="35.6px" viewBox="0 0 195.008 35.6">
<g>
	<g>
		<polygon fill-rule="evenodd" clip-rule="evenodd" fill="#FCB813" points="0,24.321 15.376,0 30.753,24.321 		"/>
		<polygon fill-rule="evenodd" clip-rule="evenodd" fill="#00A551" points="3.62,24.321 18.996,0 34.369,24.321 		"/>
		<polygon fill-rule="evenodd" clip-rule="evenodd" fill="#fff" points="39.8,2.843 46.056,2.843 46.056,11.026 53.459,11.026 
			53.459,2.843 59.712,2.843 59.712,24.321 53.459,24.321 53.459,15.104 46.056,15.104 46.056,24.321 39.8,24.321 		"/>
		<polygon fill-rule="evenodd" clip-rule="evenodd" fill="#fff" points="70.526,16.211 61.836,2.843 69.058,2.843 73.677,11.431 
			78.239,2.843 85.445,2.843 76.821,16.211 76.821,24.321 70.526,24.321 		"/>
		<path fill-rule="evenodd" clip-rule="evenodd" fill="#fff" d="M107.994,16.151c0,5.9-4.162,8.552-10.284,8.552
			c-6.156,0-10.314-2.652-10.314-8.552V2.843h6.256v12.341c0,2.851,0.845,5.26,4.059,5.26c3.178,0,4.028-2.41,4.028-5.26V2.843
			h6.256V16.151z"/>
		<polygon fill-rule="evenodd" clip-rule="evenodd" fill="#fff" points="112.16,2.843 120.138,2.843 128.083,17.411 
			128.154,17.411 128.052,2.843 133.796,2.843 133.796,24.321 126.021,24.321 117.769,9.646 117.703,9.646 117.904,24.321 
			112.16,24.321 		"/>
		<path fill-rule="evenodd" clip-rule="evenodd" fill="#fff" d="M138.402,24.321h8.555c8.047,0,13.936-2.797,13.936-10.859
			c0-8.282-5.719-10.619-13.936-10.619h-8.555V24.321z M144.689,7.098h2.406c4.598,0,7.33,2.226,7.33,6.451
			c0,4.295-2.631,6.524-7.33,6.524h-2.406V7.098z"/>
		<path fill-rule="evenodd" clip-rule="evenodd" fill="#fff" d="M160.798,24.321h6.355l1.861-4.592h8.826l1.76,4.592h6.865
			L177.4,2.843h-7.676L160.798,24.321z M176.353,15.649h-5.885l3.045-8.367h0.064L176.353,15.649z"/>
		<rect x="188.753" y="2.843" fill-rule="evenodd" clip-rule="evenodd" fill="#fff" width="6.254" height="21.478"/>
		<polygon fill-rule="evenodd" clip-rule="evenodd" fill="#fff" points="39.8,29.614 41.522,29.614 41.522,31.877 43.573,31.877 
			43.573,29.614 45.295,29.614 45.295,35.499 43.573,35.499 43.573,32.967 41.522,32.967 41.522,35.499 39.8,35.499 		"/>
		<polygon fill-rule="evenodd" clip-rule="evenodd" fill="#fff" points="46.455,29.614 50.968,29.614 50.968,30.715 
			48.148,30.715 48.148,31.952 50.813,31.952 50.813,33.043 48.148,33.043 48.148,34.364 51.071,34.364 51.071,35.499 
			46.455,35.499 		"/>
		<path fill-rule="evenodd" clip-rule="evenodd" fill="#fff" d="M51.501,35.499h1.75l0.504-1.279h2.41l0.475,1.279h1.887
			l-2.48-5.885h-2.099L51.501,35.499z M55.755,33.118h-1.605l0.841-2.305h0.019L55.755,33.118z"/>
		<polygon fill-rule="evenodd" clip-rule="evenodd" fill="#fff" points="57.691,29.614 59.521,29.614 60.959,34.213 
			60.979,34.213 62.423,29.614 64.163,29.614 61.977,35.499 59.854,35.499 		"/>
		<polygon fill-rule="evenodd" clip-rule="evenodd" fill="#fff" points="66.736,33.268 64.356,29.614 66.331,29.614 
			67.604,31.985 68.859,29.614 70.835,29.614 68.458,33.268 68.458,35.499 66.736,35.499 		"/>
		<rect x="73.943" y="29.614" fill-rule="evenodd" clip-rule="evenodd" fill="#fff" width="1.724" height="5.885"/>
		<polygon fill-rule="evenodd" clip-rule="evenodd" fill="#fff" points="76.98,29.614 79.171,29.614 81.331,33.596 
			81.351,33.596 81.322,29.614 82.896,29.614 82.896,35.499 80.753,35.499 78.529,31.461 78.509,31.461 78.567,35.499 76.98,35.499 
					"/>
		<path fill-rule="evenodd" clip-rule="evenodd" fill="#fff" d="M84.122,35.499h2.36c2.172,0,3.789-0.76,3.789-2.975
			c0-2.275-1.573-2.91-3.789-2.91h-2.36V35.499z M85.845,30.768h0.672c1.255,0,1.982,0.6,1.982,1.783
			c0,1.16-0.701,1.762-1.982,1.762h-0.672V30.768z"/>
		<path fill-rule="evenodd" clip-rule="evenodd" fill="#fff" d="M96.751,33.249c0,1.633-1.117,2.352-2.808,2.352
			c-1.687,0-2.825-0.719-2.825-2.352v-3.635h1.723v3.377c0,0.771,0.228,1.424,1.103,1.424c0.882,0,1.112-0.652,1.112-1.424v-3.377
			h1.695V33.249z"/>
		<path fill-rule="evenodd" clip-rule="evenodd" fill="#fff" d="M97.789,34.03c0.437,0.213,1.062,0.385,1.773,0.385
			c0.543,0,1.072-0.102,1.072-0.568c0-1.086-3.057-0.404-3.057-2.545c0-1.402,1.518-1.789,2.809-1.789
			c0.623,0,1.227,0.084,1.666,0.219l-0.113,1.205c-0.445-0.186-0.939-0.27-1.432-0.27c-0.439,0-1.154,0.033-1.154,0.541
			c0,0.98,3.057,0.311,3.057,2.438c0,1.545-1.41,1.955-2.848,1.955c-0.598,0-1.352-0.082-1.92-0.25L97.789,34.03z"/>
		<polygon fill-rule="evenodd" clip-rule="evenodd" fill="#fff" points="104.316,30.768 102.746,30.768 102.746,29.614 
			107.626,29.614 107.626,30.768 106.039,30.768 106.039,35.499 104.316,35.499 		"/>
		<path fill-rule="evenodd" clip-rule="evenodd" fill="#fff" d="M108.302,35.499h1.723v-2.34h0.367
			c0.629,0,0.854,0.252,1.209,1.256l0.355,1.084h1.785l-0.633-1.621c-0.328-0.709-0.361-1.15-0.916-1.285v-0.016
			c0.834-0.164,1.242-0.682,1.242-1.492c0-1.002-0.938-1.471-2.057-1.471h-3.076V35.499z M110.025,30.715h0.459
			c0.65,0,1.254,0.098,1.254,0.645c0,0.695-0.703,0.709-1.254,0.709h-0.459V30.715z"/>
		<rect x="114.58" y="29.614" fill-rule="evenodd" clip-rule="evenodd" fill="#fff" width="1.725" height="5.885"/>
		<polygon fill-rule="evenodd" clip-rule="evenodd" fill="#fff" points="117.542,29.614 122.07,29.614 122.07,30.715 
			119.265,30.715 119.265,31.952 121.917,31.952 121.917,33.043 119.265,33.043 119.265,34.364 122.169,34.364 122.169,35.499 
			117.542,35.499 		"/>
		<path fill-rule="evenodd" clip-rule="evenodd" fill="#fff" d="M123.242,34.03c0.441,0.213,1.064,0.385,1.775,0.385
			c0.545,0,1.068-0.102,1.068-0.568c0-1.086-3.057-0.404-3.057-2.545c0-1.402,1.518-1.789,2.813-1.789
			c0.621,0,1.232,0.084,1.668,0.219l-0.113,1.205c-0.445-0.186-0.941-0.27-1.434-0.27c-0.438,0-1.154,0.033-1.154,0.541
			c0,0.98,3.047,0.311,3.047,2.438c0,1.545-1.4,1.955-2.838,1.955c-0.602,0-1.352-0.082-1.922-0.25L123.242,34.03z"/>
		<path fill-rule="evenodd" clip-rule="evenodd" fill="#fff" d="M137.046,35.368c-0.492,0.105-1.023,0.232-1.889,0.232
			c-1.723,0-3.715-0.785-3.715-3.023c0-2.051,1.574-3.064,3.705-3.064c0.654,0,1.268,0.137,1.889,0.301l-0.141,1.264
			c-0.555-0.279-1.066-0.41-1.652-0.41c-1.225,0-2.027,0.801-2.027,1.91c0,1.143,0.904,1.838,2.164,1.838
			c0.553,0,1.107-0.137,1.584-0.303L137.046,35.368z"/>
		<path fill-rule="evenodd" clip-rule="evenodd" fill="#fff" d="M137.593,32.551c0,1.852,1.129,3.049,3.242,3.049
			c2.107,0,3.223-1.197,3.223-3.049c0-1.893-1.096-3.039-3.223-3.039C138.707,29.512,137.593,30.659,137.593,32.551z
			 M139.371,32.551c0-1.033,0.414-1.885,1.465-1.885c1.043,0,1.461,0.852,1.461,1.885c0,0.961-0.418,1.863-1.461,1.863
			C139.785,34.415,139.371,33.512,139.371,32.551z"/>
		<rect x="144.46" y="34.112" fill-rule="evenodd" clip-rule="evenodd" fill="#fff" width="1.557" height="1.387"/>
		<path fill-rule="evenodd" clip-rule="evenodd" fill="#fff" d="M151.103,30.698h0.449c0.514,0,1.014,0.051,1.014,0.592
			c0,0.496-0.523,0.623-1.031,0.623h-0.432V30.698z M149.556,35.471h2.445c1.037,0,2.26-0.295,2.26-1.703
			c0-0.717-0.4-1.139-1.172-1.299v-0.018c0.648-0.219,1.021-0.631,1.021-1.373c0-1.012-0.805-1.494-1.887-1.494h-2.668V35.471z
			 M151.103,32.975h0.475c0.529,0,1.137,0.059,1.137,0.701c0,0.598-0.59,0.682-1.154,0.682h-0.457V32.975z"/>
		<polygon fill-rule="evenodd" clip-rule="evenodd" fill="#fff" points="161.783,29.614 163.33,29.614 163.33,34.336 
			165.722,34.336 165.722,35.5 161.783,35.5 		"/>
		<path fill-rule="evenodd" clip-rule="evenodd" fill="#fff" d="M171.705,35.329c-0.98,0.254-1.711,0.271-2.244,0.271
			c-1.545,0-3.33-0.793-3.33-3.02c0-2.217,1.537-3.068,3.662-3.068c0.383,0,1.188,0.043,1.754,0.262l-0.125,1.281
			c-0.482-0.285-1.047-0.379-1.412-0.379c-1.254,0-2.285,0.531-2.285,1.904c0,1.156,0.807,1.855,1.936,1.855
			c0.209,0,0.408-0.033,0.549-0.102V33.17h-0.906v-1.111h2.402V35.329z"/>
		<path fill-rule="evenodd" clip-rule="evenodd" fill="#fff" d="M160.707,33.249c0,1.633-1.117,2.352-2.809,2.352
			c-1.686,0-2.822-0.719-2.822-2.352v-3.635h1.721v3.377c0,0.771,0.227,1.424,1.102,1.424c0.883,0,1.113-0.652,1.113-1.424v-3.377
			h1.695V33.249z"/>
		<path fill-rule="evenodd" clip-rule="evenodd" fill="#fff" d="M172.289,35.499h1.75l0.502-1.279h2.412l0.473,1.279h1.887
			l-2.48-5.885h-2.098L172.289,35.499z M176.541,33.118h-1.605l0.842-2.305h0.018L176.541,33.118z"/>
		<path fill-rule="evenodd" clip-rule="evenodd" fill="#fff" d="M179.789,35.499h1.723v-2.34h0.367
			c0.627,0,0.852,0.252,1.209,1.256l0.354,1.084h1.785l-0.631-1.621c-0.33-0.709-0.363-1.15-0.918-1.285v-0.016
			c0.836-0.164,1.242-0.682,1.242-1.492c0-1.002-0.938-1.471-2.057-1.471h-3.074V35.499z M181.511,30.715h0.457
			c0.652,0,1.256,0.098,1.256,0.645c0,0.695-0.705,0.709-1.256,0.709h-0.457V30.715z"/>
		<rect x="185.818" y="29.614" fill-rule="evenodd" clip-rule="evenodd" fill="#fff" width="1.723" height="5.885"/>
		<path fill-rule="evenodd" clip-rule="evenodd" fill="#fff" d="M187.984,35.499h1.75l0.502-1.279h2.412l0.475,1.279h1.887
			l-2.482-5.885h-2.098L187.984,35.499z M192.236,33.118h-1.604l0.84-2.305h0.02L192.236,33.118z"/>
	</g>
</g>
</svg>
